# xmcd
#
# Track frame offsets:
#	150
#	14130
#	27771
#	40802
#	53975
#	68325
#	76843
#	89221
#	106219
#	119674
#	130700
#	149103
#	162517
#	176296
#	194009
#	216201
#	230461
#	239955
#	260813
#	280556
#	301543
#
# Disc length: 4289 seconds
#
# Revision: 0
# Processed by: cddbd v1.5.2PL0 Copyright (c) Steve Scherf et al.
# Submitted via: EasyCDDAExtractor 16.0.8.2
#
DISCID=3610bf15
DTITLE=Συλλογικός δίσκος - Μουσική παράδοση Χίου
DYEAR=2003
DGENRE=Παραδοσιακή
TTITLE0=Άνευ ερμηνευτού - Παλιός ποταμός [οργανικό]
TTITLE1=Λουλούδης Σωτήρης - Δασκάλα [συρτός]
TTITLE2=Τσικαλά Στ.-ΓιαννοπούλουΣ-ΚαγιάνταςΔ-ΜελάςΜ. - Άρχισε γλώσσα μου γλυκι
TTITLE2=ά
TTITLE3=Άνευ ερμηνευτού - Μόστρα-κασάπικο [οργανικό]
TTITLE4=Σκιαδά Μαίρη - Ένα Σάββατο βράδυ [συρτός]
TTITLE5=Άνευ ερμηνευτού - Πυργούσικος χορός
TTITLE6=Πούπαλος Δημήτρης - Ω! Κρητική μου λεμονιά
TTITLE7=Άνευ ερμηνευτού - Τσιφτετέλι [οργανικό]
TTITLE8=Αλμυρούδη Μαριάνθη - Ένα μικρό τουρκόπουλο [τρίπατος]
TTITLE9=Άνευ ερμηνευτού - Συρτός"Φέρεης" [οργανικό, συρτός]
TTITLE10=Σαραντηνούδη Ε. - Τρεις καλόγηροι Κρητικοί [καθιστικό]
TTITLE11=Λουλούδης Σωτήρης - Ξημέρωσε η ανατολή [συρτός]
TTITLE12=Άνευ ερμηνευτού - Πυργούσικος [οργανικό]
TTITLE13=Τσικαλά Στ.-ΓιαννοπούλουΣ-ΚαγιάνταςΔ-ΜελάςΜ. - Όσο καυχιόμουν και έλε
TTITLE13=γα [σταυρωτός]
TTITLE14=Άνευ ερμηνευτού - Ζεϊμπέκικο απτάλικο [οργανικό]
TTITLE15=Τσικαλά Στ.-ΓιαννοπούλουΣ-ΚαγιάνταςΔ-ΜελάςΜ. - Τούτες οι μέρες τό 'χο
TTITLE15=υνε [δετός αποκρεάτικος]
TTITLE16=Άνευ ερμηνευτού - Συρτός χορός [οργανικό]
TTITLE17=Ομάδα γυναικών - Πες μου, βρε Γιώργο, ποιά 'γαπάς
TTITLE18=Λουλούδης Σωτήρης - Κλώσσα τα πουλιά [συρτός]
TTITLE19=Αυγουστίδης Σέργιος - Μανές-κασάπικο
TTITLE20=Άνευ ερμηνευτού - Ταξίμι-αζιζιές [οργανικό]
EXTD=
EXTT0=
EXTT1=
EXTT2=
EXTT3=
EXTT4=
EXTT5=
EXTT6=
EXTT7=
EXTT8=
EXTT9=
EXTT10=
EXTT11=
EXTT12=
EXTT13=
EXTT14=
EXTT15=
EXTT16=
EXTT17=
EXTT18=
EXTT19=
EXTT20=
PLAYORDER=
